<svg xmlns="http://www.w3.org/2000/svg" width="512" height="512" viewBox="0 0 512 512">
  <defs>
    <linearGradient id="sun" x1="0" x2="0" y1="0" y2="1">
      <stop offset="0%" stop-color="#FFD36E"/>
      <stop offset="55%" stop-color="#FF2E88"/>
      <stop offset="100%" stop-color="#9A4DFF"/>
    </linearGradient>
    <filter id="glow" x="-30%" y="-30%" width="160%" height="160%">
      <feGaussianBlur stdDeviation="4" result="blur"/>
      <feMerge><feMergeNode in="blur"/><feMergeNode in="SourceGraphic"/></feMerge>
    </filter>
  </defs>
  <rect width="512" height="512" fill="#0B0F1A"/>
  <circle cx="256" cy="132" r="84" fill="url(#sun)" opacity="0.95"/>
  <g opacity="0.45">
    <rect x="172" y="88" width="168" height="4" fill="#0B0F1A"/>
    <rect x="172" y="100" width="168" height="4" fill="#0B0F1A"/>
    <rect x="172" y="112" width="168" height="4" fill="#0B0F1A"/>
    <rect x="172" y="124" width="168" height="4" fill="#0B0F1A"/>
    <rect x="172" y="136" width="168" height="4" fill="#0B0F1A"/>
    <rect x="172" y="148" width="168" height="4" fill="#0B0F1A"/>
  </g>
  <path d="M60 354 H452" stroke="#00E5FF" stroke-width="2" opacity="0.9"/>
  <g opacity="0.35">
    <path d="M256 354 L32 512" stroke="#00E5FF" stroke-width="1"/>
    <path d="M256 354 L64 512" stroke="#00E5FF" stroke-width="1"/>
    <path d="M256 354 L96 512" stroke="#00E5FF" stroke-width="1"/>
    <path d="M256 354 L128 512" stroke="#00E5FF" stroke-width="1"/>
    <path d="M256 354 L160 512" stroke="#00E5FF" stroke-width="1"/>
    <path d="M256 354 L192 512" stroke="#00E5FF" stroke-width="1"/>
    <path d="M256 354 L224 512" stroke="#00E5FF" stroke-width="1"/>
    <path d="M256 354 L256 512" stroke="#00E5FF" stroke-width="1"/>
    <path d="M256 354 L288 512" stroke="#00E5FF" stroke-width="1"/>
    <path d="M256 354 L320 512" stroke="#00E5FF" stroke-width="1"/>
    <path d="M256 354 L352 512" stroke="#00E5FF" stroke-width="1"/>
    <path d="M256 354 L384 512" stroke="#00E5FF" stroke-width="1"/>
    <path d="M256 354 L416 512" stroke="#00E5FF" stroke-width="1"/>
    <path d="M256 354 L448 512" stroke="#00E5FF" stroke-width="1"/>
    <path d="M256 354 L480 512" stroke="#00E5FF" stroke-width="1"/>
    <path d="M0 378 H512" stroke="#00E5FF" stroke-width="1"/>
    <path d="M0 396 H512" stroke="#00E5FF" stroke-width="1"/>
    <path d="M0 414 H512" stroke="#00E5FF" stroke-width="1"/>
    <path d="M0 432 H512" stroke="#00E5FF" stroke-width="1"/>
    <path d="M0 450 H512" stroke="#00E5FF" stroke-width="1"/>
    <path d="M0 468 H512" stroke="#00E5FF" stroke-width="1"/>
    <path d="M0 486 H512" stroke="#00E5FF" stroke-width="1"/>
    <path d="M0 504 H512" stroke="#00E5FF" stroke-width="1"/>
  </g>
  <g filter="url(#glow)">
    <path d="M256 130 L360 170 L342 300 C330 378 290 420 256 442 C222 420 182 378 170 300 L152 170 Z" fill="none" stroke="#00E5FF" stroke-width="14" stroke-linejoin="round"/>
    <path d="M256 220 a70 70 0 1 1 0 140" fill="none" stroke="#00E5FF" stroke-width="12"/>
    <path d="M256 290 L330 254" stroke="#FF2E88" stroke-width="12" stroke-linecap="round"/>
    <circle cx="256" cy="290" r="12" fill="#FF2E88"/>
  </g>
  <text x="256" y="422" text-anchor="middle" font-family="Orbitron, Arial, sans-serif" font-size="22" fill="#E6ECFF" letter-spacing="1.2"><tspan x="256" y="404">security</tspan><tspan x="256" y="432">watchdog</tspan></text>
</svg>
